<?xml version="1.0" standalone="no"?>
<!DOCTYPE svg PUBLIC "-//W3C//DTD SVG 20010904//EN"
 "http://www.w3.org/TR/2001/REC-SVG-20010904/DTD/svg10.dtd">
<svg version="1.0" xmlns="http://www.w3.org/2000/svg"
 width="512.000000pt" height="512.000000pt" viewBox="0 0 512.000000 512.000000"
 preserveAspectRatio="xMidYMid meet">
<metadata>
Created by potrace 1.11, written by Peter Selinger 2001-2013
</metadata>
<g transform="translate(0.000000,512.000000) scale(0.100000,-0.100000)"
fill="#000000" stroke="none">
<path d="M2787 4489 c-98 -52 -97 -201 1 -257 37 -20 52 -22 218 -22 212 0
249 -11 283 -79 20 -39 21 -56 21 -431 l0 -390 -750 0 -750 0 0 149 0 149 103
4 c88 3 106 7 134 27 34 25 63 84 63 127 0 42 -35 98 -77 121 -38 21 -49 22
-372 23 -328 0 -333 0 -373 -22 -103 -58 -101 -206 4 -257 35 -16 63 -21 131
-21 l87 0 0 -212 c0 -231 4 -207 -65 -373 -7 -16 -41 -101 -75 -187 -60 -153
-63 -157 -88 -152 -15 2 -49 9 -77 13 -65 12 -273 7 -350 -9 -309 -62 -590
-272 -734 -549 -86 -166 -121 -318 -116 -511 5 -191 57 -364 158 -525 100
-160 277 -316 447 -393 154 -70 256 -93 425 -97 234 -6 420 49 625 184 160
105 328 327 389 514 7 21 18 40 25 42 6 2 101 5 211 7 198 3 201 3 257 32 64
32 99 68 137 135 20 38 25 60 25 126 1 87 -18 143 -67 200 -22 25 -24 32 -13
45 12 14 117 141 585 713 112 136 205 247 206 245 7 -7 117 -289 114 -291 -2
-2 -31 -21 -63 -42 -120 -81 -253 -229 -328 -365 -39 -70 -85 -197 -105 -285
-18 -83 -24 -287 -11 -375 37 -244 177 -490 370 -647 40 -33 87 -68 103 -77
138 -78 200 -105 305 -132 145 -39 372 -40 515 -2 151 39 331 130 421 212 162
150 231 241 296 396 63 148 80 230 83 397 4 173 -30 325 -108 478 -210 411
-661 643 -1112 570 -44 -7 -81 -12 -82 -11 0 0 -47 115 -102 254 -89 221 -101
260 -101 312 l0 60 318 1 c174 0 328 2 341 5 50 9 113 45 155 87 63 65 83 126
85 263 2 139 -12 183 -72 219 l-41 24 -390 1 c-214 0 -391 2 -392 3 -2 1 -4
50 -5 107 -3 216 -87 362 -254 441 -86 41 -145 49 -349 49 -162 -1 -185 -3
-219 -21z m343 -1485 c0 -3 -62 -80 -137 -172 -117 -142 -336 -409 -392 -477
-9 -11 -53 -67 -99 -123 -45 -56 -91 -112 -101 -125 -11 -12 -42 -50 -71 -85
l-51 -63 -107 3 -106 3 -18 50 c-22 61 -78 175 -95 193 -7 7 -13 17 -13 22 0
34 -206 245 -294 300 -31 19 -56 38 -56 42 0 5 39 105 86 223 l86 215 684 0
c376 0 684 -2 684 -6z m-1945 -605 c3 -4 -33 -103 -80 -222 l-86 -215 -92 -4
c-143 -7 -233 -61 -288 -173 -32 -66 -33 -178 -2 -245 40 -86 133 -160 218
-174 17 -2 225 -5 462 -5 l433 -1 -26 -47 c-94 -170 -245 -300 -420 -361 -87
-30 -106 -33 -219 -37 -300 -11 -572 150 -708 420 -100 200 -98 462 5 660 107
203 294 345 523 398 59 14 267 18 280 6z m3023 -6 c291 -59 517 -274 591 -563
23 -91 22 -262 -3 -355 -101 -369 -472 -614 -844 -556 -314 49 -572 295 -629
602 -10 53 -11 207 -1 269 15 101 70 225 143 321 46 61 158 169 175 169 4 0
33 -63 64 -141 l56 -140 -39 -47 c-130 -156 -144 -373 -34 -539 154 -234 489
-269 687 -70 92 92 135 197 132 324 -6 228 -163 403 -392 436 l-73 11 -56 138
c-30 76 -55 140 -55 142 0 18 190 17 278 -1z m-2700 -133 c64 -49 147 -140
188 -206 24 -39 44 -76 44 -82 0 -9 -54 -12 -199 -12 l-199 0 55 138 c30 75
59 147 64 160 10 27 14 27 47 2z"/>
</g>
</svg>
